<?xml version="1.0" encoding="utf-8"?>
<!-- Generator: $$$/GeneralStr/196=Adobe Illustrator 27.6.0, SVG Export Plug-In . SVG Version: 6.00 Build 0)  -->
<svg version="1.1" id="Calque_1" xmlns="http://www.w3.org/2000/svg" xmlns:xlink="http://www.w3.org/1999/xlink" x="0px" y="0px"
	 viewBox="0 0 1133.3 256.1" style="enable-background:new 0 0 1133.3 256.1;" xml:space="preserve">
<rect x="0" y="-0.2" style="fill:#FFFFFF;" width="284.2" height="257.3"/>
<g>
	<g>
		<g>
			<path d="M33.7,83.7h7.7c5.5,0,9,2.8,9,7.6c0,3.1-1.5,5.3-4,6.5l7.9,11.2h-6.1l-6.7-10.2h-2.6v10.2h-5.1V83.7z M38.7,88.1v6.4h2.9
				c2.2,0,3.4-1.1,3.4-3.2c0-1.9-1.3-3.1-3.4-3.1H38.7z"/>
			<path d="M57.4,83.7h14.7V88h-9.6v5.8h8.1v4.3h-8.1v6.4h9.6v4.3H57.4V83.7z M62.4,81.5l4.1-4.9h5.2l-4.7,4.9H62.4z"/>
			<path d="M78.1,83.7h8.4c5.5,0,9,2.8,9,7.6c0,4.6-3.4,7.5-9,7.5h-3.2v10.2h-5.2C78.1,108.9,78.1,83.7,78.1,83.7z M83.3,88.1v6.4
				h3.4c2.2,0,3.4-1.1,3.4-3.2c0-1.9-1.3-3.1-3.4-3.1H83.3z"/>
			<path d="M114.6,83.7h5.2v15.4c0,6.7-3.9,10.6-10.2,10.6s-10.2-4-10.2-10.6V83.7h5.2v15.8c0,3.4,1.9,5.4,5.2,5.4
				c3.1,0,5.1-2,5.1-5.4L114.6,83.7L114.6,83.7z"/>
			<path d="M126.1,83.7h7.2c5.3,0,8.4,2.6,8.4,6.9c0,2-1,3.8-2.7,5c2.7,1.2,4.2,3.4,4.2,6c0,4.6-3.6,7.5-9.4,7.5h-7.7V83.7z
				 M131.2,88.1v5.5h2.2c1.9,0,3.1-1,3.1-2.8c0-1.7-1.1-2.8-3.1-2.8C133.4,88.1,131.2,88.1,131.2,88.1z M131.2,98v6.6h2.9
				c2.4,0,3.8-1.3,3.8-3.4s-1.4-3.2-3.8-3.2H131.2z"/>
			<path d="M148.4,83.7h5.2v20.6h9.6v4.6h-14.7L148.4,83.7L148.4,83.7z"/>
			<path d="M167.7,83.7h5.2v25.3h-5.2V83.7z"/>
			<path d="M206.4,110.7c0.5,0,1.3-0.1,1.8-0.3v4.3c-0.8,0.3-1.6,0.4-2.7,0.4c-2.8,0-5.4-1.1-7.9-3.3l-3-2.7c-1,0.3-2.2,0.4-3.4,0.4
				c-8,0-13.5-6.1-13.5-13.4s5.5-13.4,13.5-13.4c7.9,0,13.4,6.1,13.4,13.4c0,4.3-1.9,8.1-5,10.5l1.5,1.4
				C203.1,110.1,204.8,110.7,206.4,110.7z M199.3,96.3c0-4.9-3.4-8.6-8.1-8.6s-8.1,3.7-8.1,8.6c0,4.9,3.4,8.6,8.1,8.6
				C195.9,104.9,199.3,101.2,199.3,96.3z"/>
			<path d="M224.4,83.7h5.2v15.4c0,6.7-3.9,10.6-10.2,10.6s-10.2-4-10.2-10.6V83.7h5.2v15.8c0,3.4,1.9,5.4,5.2,5.4
				c3.1,0,5.1-2,5.1-5.4L224.4,83.7L224.4,83.7z"/>
			<path d="M235.9,83.7h14.7V88H241v5.8h8.1v4.3H241v6.4h9.6v4.3h-14.7V83.7z"/>
			<path d="M33.7,120.2h14.7v4.3h-9.6v5.8h8.1v4.3h-8.1v10.7h-5.1V120.2z"/>
			<path d="M52.9,120.2h7.7c5.5,0,9,2.8,9,7.6c0,3.1-1.5,5.3-4,6.5l7.9,11.2h-6.1l-6.7-10.2H58v10.2h-5.2L52.9,120.2L52.9,120.2z
				 M58,124.5v6.4h2.9c2.2,0,3.4-1.1,3.4-3.2c0-1.9-1.3-3.1-3.4-3.1H58z"/>
			<path d="M84.2,120.2h6.7l9.6,25.3H95l-2.4-6.6H82.6l-2.4,6.6h-5.5L84.2,120.2z M91,134.5l-3.4-9.5l-3.4,9.5H91z"/>
			<path d="M104.4,120.2h6.6l11.3,18.1v-18.1h5.2v25.3h-6.6l-11.3-18.2v18.2h-5.2V120.2z"/>
			<path d="M152.3,137.9l4,3.1c-1.9,2.7-5,4.6-8.7,5l-3.1,5.2H140l3.2-5.3c-6.6-1.1-10.9-6.7-10.9-13.2c0-7.3,5.5-13.4,13.5-13.4
				c4.6,0,8.4,2.1,10.7,5.2l-4,3.1c-1.4-2.1-3.7-3.4-6.6-3.4c-4.8,0-8.1,3.7-8.1,8.6c0,4.9,3.4,8.6,8.1,8.6
				C148.6,141.3,150.9,140,152.3,137.9z"/>
			<path d="M167,120.2h6.7l9.6,25.3h-5.5l-2.4-6.6h-10.1l-2.4,6.6h-5.5L167,120.2z M173.8,134.5l-3.4-9.5l-3.4,9.5H173.8z"/>
			<path d="M187.2,120.2h5.2v25.3h-5.2V120.2z"/>
			<path d="M200.9,138.5c1.5,1.9,3.5,3.1,5.6,3.1c2,0,3.2-1,3.2-2.9c0-4.5-11.6-3.5-11.6-11.9c0-4,3.3-7.3,8.1-7.3
				c3.8,0,6.7,1.7,8.8,4.3l-3.7,3.4c-1.5-1.9-3.1-3.1-5.1-3.1c-1.8,0-2.9,1.1-2.9,2.6c0,4.5,11.6,3.4,11.6,12
				c-0.1,4.7-3.7,7.6-8.4,7.6c-4.3,0-7.2-1.6-9.4-4.3L200.9,138.5z"/>
			<path d="M220.3,120.2h14.7v4.3h-9.6v5.8h8.1v4.3h-8.1v6.4h9.6v4.3h-14.7V120.2z"/>
		</g>
	</g>
	<g>
		<path d="M115.9,215.3c0.7,0,1.3,0.5,1,1.9l-3.2,0.7C114.3,216.4,115.1,215.3,115.9,215.3 M117.7,220.4h-0.6
			c-0.8,1-1.6,1.7-2.5,1.7c-0.9,0-1.3-0.5-1.3-1.7c0-0.4,0.1-1,0.1-1.4l5.2-1.7c1-2.4-0.2-3.4-1.6-3.4c-2.4,0-5.2,4-5.2,7.6
			c0,1.6,0.7,2.5,1.9,2.5C115.1,223.9,116.5,222.6,117.7,220.4 M116.6,212.9l3.6-3.4v-0.4h-1.9l-2.2,3.7H116.6z M105.6,215.3h1.7
			l-2.7,7.4c-0.2,0.6,0.1,1.3,0.7,1.3c1.6,0,4-1.5,4.9-3.6h-0.4c-0.7,0.7-2,1.7-3.1,1.9l2.5-7h2.5l0.3-1h-2.5l1-2.7h-1l-1.8,2.7
			l-2.1,0.3L105.6,215.3L105.6,215.3z M103.3,215c0.2-0.7-0.2-1-0.6-1c-1.5,0-3.2,1.3-4,3.2h0.4c0.4-0.7,1.3-1.4,2.1-1.6l-2.8,7.4
			c-0.2,0.7,0.2,1,0.6,1c1.4,0,3.1-1.3,3.7-3.2h-0.4c-0.4,0.7-1.3,1.4-2.1,1.6L103.3,215z M103.8,211.2c0.7,0,1.2-0.5,1.2-1.2
			s-0.5-1.2-1.2-1.2c-0.7,0-1.2,0.5-1.2,1.2C102.6,210.7,103.1,211.2,103.8,211.2 M87.5,222.6c-0.4,0.8,0,1.3,0.8,1.3
			c0.5,0,0.7-0.1,0.9-0.7l1.9-5.2c0.9-1.1,2.8-2.3,3.5-2.3c0.5,0,0.4,0.4,0.1,1.1l-3,5.8c-0.3,0.6,0.1,1.3,0.7,1.3
			c1.5,0,3.2-1.3,4-3.2H96c-0.4,0.7-1.3,1.4-2.1,1.6l2.6-5.2c0.3-0.7,0.5-1.3,0.5-1.8c0-0.8-0.4-1.4-1.3-1.4c-1.3,0-2.5,1.4-4.1,3.2
			v-1.3c0-1-0.3-1.9-1.2-1.9c-0.5,0-1.1,0.4-1.6,1.2v0.1c1-0.1,1.4,1.4,0.7,2.9L87.5,222.6z M87.4,216.1c0.4-1.2,0.1-2.2-0.7-2.2
			c-1.1,0-1.3,0.8-2.5,3.2v-1.3c0-1-0.3-1.9-1.2-1.9c-1,0-2,1.6-2.7,3.2h0.4c0.5-0.7,1-1.1,1.3-1.1c0.4,0,0.7,0.7,0,2.2l-2,4.5
			c-0.4,0.8,0,1.3,0.8,1.3c0.5,0,0.7-0.1,0.9-0.7l1.9-5.2c0.5-0.7,1-1.3,1.7-1.9L87.4,216.1L87.4,216.1z M76,215.3
			c0.7,0,1.3,0.5,1,1.9l-3.2,0.7C74.4,216.4,75.3,215.3,76,215.3 M77.8,220.4h-0.6c-0.8,1-1.6,1.7-2.5,1.7c-0.9,0-1.3-0.5-1.3-1.7
			c0-0.4,0.1-1,0.1-1.4l5.2-1.7c1-2.4-0.2-3.4-1.6-3.4c-2.4,0-5.2,4-5.2,7.6c0,1.6,0.7,2.5,1.9,2.5
			C75.1,223.9,76.6,222.6,77.8,220.4 M65.7,215.3h1.7l-2.7,7.4c-0.2,0.6,0.1,1.3,0.7,1.3c1.6,0,4-1.5,4.9-3.6h-0.4
			c-0.7,0.7-2,1.7-3.1,1.9l2.5-7h2.5l0.3-1h-2.5l1-2.7h-1l-1.8,2.7l-2.1,0.3L65.7,215.3L65.7,215.3z M56.3,221.1
			c0-2.2,2.5-5.4,4-5.4c0.3,0,0.6,0,0.9,0.1l-1.5,4c-0.8,1-2.2,2.3-2.8,2.3C56.5,222.1,56.3,221.8,56.3,221.1 M64.2,213.5l-0.7-0.1
			l-0.9,0.8h-0.1c-4.3,0-7.9,4.7-7.9,8.2c0,1,0.6,1.5,1.5,1.5c1.1,0,2.2-1.6,3.4-3.2l-0.1,0.6c-0.1,1.7,0.4,2.6,1.3,2.6
			c1,0,2-1.6,2.7-3.2h-0.4c-0.5,0.7-1,1.1-1.3,1.1s-0.7-0.7,0-2.2L64.2,213.5z M55.1,216.1c0.4-1.2,0.1-2.2-0.7-2.2
			c-1.1,0-1.3,0.8-2.5,3.2v-1.3c0-1-0.3-1.9-1.2-1.9c-1,0-2,1.6-2.7,3.2h0.4c0.5-0.7,1-1.1,1.3-1.1c0.4,0,0.7,0.7,0,2.2l-2,4.5
			c-0.4,0.8,0,1.3,0.8,1.3c0.5,0,0.7-0.1,0.9-0.7l1.9-5.2c0.5-0.7,1-1.3,1.7-1.9L55.1,216.1L55.1,216.1z M40.9,223.6l0.1-0.6
			c-2.5-0.4-2.8-0.4-1.8-3.1l1-2.8h2.7c1.2,0,1.3,0.5,1,1.9h0.7l1.6-4.5h-0.7c-0.6,1-1.1,1.9-2.4,1.9h-2.7l1.4-3.9
			c0.4-1.3,0.7-1.5,2.4-1.5h1.3c1.7,0,1.9,0.4,1.9,2.2h0.7l0.6-3.1H38.6l-0.1,0.6c2,0.4,2.2,0.6,1.3,3.1l-2.2,6.1
			c-0.9,2.5-1.3,2.8-3.6,3.1l-0.1,0.6L40.9,223.6L40.9,223.6z"/>
		<path d="M91.1,192.1c0.7,0,1.3,0.5,1,1.9l-3.2,0.7C89.4,193.2,90.3,192.1,91.1,192.1 M92.9,197.2h-0.6c-0.8,1-1.6,1.7-2.5,1.7
			c-0.9,0-1.3-0.5-1.3-1.7c0-0.4,0.1-1,0.1-1.4l5.2-1.7c1-2.4-0.2-3.4-1.6-3.4c-2.4,0-5.2,4-5.2,7.6c0,1.6,0.7,2.5,1.9,2.5
			C90.3,200.8,91.7,199.4,92.9,197.2 M91.8,189.8l3.6-3.4V186h-1.9l-2.2,3.7H91.8z M80.8,192.1h1.7l-2.7,7.4
			c-0.2,0.6,0.1,1.3,0.7,1.3c1.6,0,4-1.5,4.9-3.6h-0.4c-0.7,0.7-2,1.7-3.1,1.9l2.5-7h2.5l0.3-1h-2.5l1-2.7h-1l-1.8,2.7l-2.1,0.3
			C80.8,191.4,80.8,192.1,80.8,192.1z M78.4,191.8c0.2-0.7-0.2-1-0.6-1c-1.5,0-3.2,1.3-4,3.2h0.4c0.4-0.7,1.3-1.4,2.1-1.6l-2.8,7.4
			c-0.2,0.7,0.2,1,0.6,1c1.4,0,3.1-1.3,3.7-3.2h-0.4c-0.4,0.7-1.3,1.4-2.1,1.6L78.4,191.8z M79,188c0.7,0,1.2-0.5,1.2-1.2
			c0-0.7-0.5-1.2-1.2-1.2c-0.7,0-1.2,0.5-1.2,1.2S78.3,188,79,188 M69.1,199.2l5.2-13.5l-0.1-0.2l-3.2,0.4v0.4l0.6,0.4
			c0.6,0.4,0.4,0.9-0.1,2.2l-4,10.7c-0.3,0.6,0.1,1.3,0.7,1.3c1.5,0,3.1-1.3,3.7-3.2h-0.4C70.9,198.3,69.8,199,69.1,199.2
			 M59.3,197.9c0-2.2,2.5-5.4,4-5.4c0.3,0,0.6,0,0.9,0.1l-1.5,4c-0.8,1-2.2,2.3-2.8,2.3C59.5,198.9,59.3,198.6,59.3,197.9
			 M67.1,190.3l-0.7-0.1l-0.9,0.8h-0.1c-4.3,0-7.9,4.7-7.9,8.2c0,1,0.6,1.5,1.5,1.5c1.1,0,2.2-1.6,3.4-3.2l-0.1,0.6
			c-0.1,1.7,0.4,2.6,1.3,2.6c1,0,2-1.6,2.7-3.2h-0.4c-0.5,0.7-1,1.1-1.3,1.1c-0.4,0-0.7-0.7,0-2.2L67.1,190.3z M48.2,202.6
			c0-1,1-1.6,2.3-2.2c0.4,0.2,1.1,0.4,2,0.7c1.4,0.4,1.9,0.7,1.9,1c0,0.9-1.6,1.6-3.7,1.6C49.1,203.9,48.2,203.5,48.2,202.6
			 M52,196.6c-0.6,0-0.8-0.5-0.8-1.1c0-1.6,0.9-4.1,2.2-4.1c0.6,0,0.8,0.5,0.8,1.1C54.4,194.2,53.5,196.6,52,196.6 M56.1,201.6
			c0-1.2-1-1.6-2.8-2.2c-1.5-0.4-2.2-0.6-2.2-1c0-0.4,0.3-0.8,1-1.2c2.4-0.1,4-2.3,4-4.2c0-0.4-0.1-0.7-0.2-1H58l0.3-1H55
			c-0.4-0.2-0.8-0.4-1.3-0.4c-2.5,0-4.3,2.2-4.3,4.1c0,1.4,0.9,2.2,1.9,2.5c-1.2,0.5-1.9,1.2-1.9,1.9c0,0.4,0.1,0.7,0.5,1
			c-2.8,0.8-3.9,1.7-3.9,3.1c0,1.3,1.7,1.8,3.7,1.8C53.2,205.1,56.1,203.2,56.1,201.6 M43.1,193.7c1.2,0,1.3,0.5,1,1.9h0.7l1.6-4.5
			h-0.7c-0.6,1-1.1,1.9-2.4,1.9h-2.7l1.3-3.7c0.4-1.3,0.7-1.5,2.4-1.5h1.1c1.7,0,1.9,0.4,1.9,2.2h0.7l0.6-3.1H38.6l-0.1,0.6
			c2,0.4,2.2,0.6,1.3,3.1l-2.2,6.1c-0.9,2.5-1.3,2.8-3.6,3.1l-0.1,0.6h11.4l2-3.2h-0.7c-1.3,1.2-2.9,2.4-5.2,2.4
			c-3,0-2.8-0.1-1.7-2.9l1-2.9L43.1,193.7L43.1,193.7z M44.6,185.9l3.6-2.5v-0.4H46l-2,2.8H44.6z"/>
		<path d="M89.9,168.9c0.7,0,1.3,0.5,1,1.9l-3.2,0.7C88.2,170,89.1,168.9,89.9,168.9 M91.7,174.1h-0.6c-0.8,1-1.6,1.7-2.5,1.7
			c-0.9,0-1.3-0.5-1.3-1.7c0-0.4,0.1-1,0.1-1.4l5.2-1.7c1-2.4-0.2-3.4-1.6-3.4c-2.4,0-5.2,4-5.2,7.6c0,1.6,0.7,2.5,1.9,2.5
			C89.1,177.6,90.5,176.2,91.7,174.1 M90.6,166.6l3.6-3.4v-0.4h-1.9l-2.2,3.7H90.6z M80,169h1.3l-2.7,7.4c-0.2,0.6,0.1,1.3,0.7,1.3
			c1.6,0,4-1.5,4.9-3.6h-0.4c-0.7,0.7-2,1.7-3.1,1.9l2.5-7h2.5l0.3-1h-2.5l1-2.7h-1l-1.8,2.7l-1.7,0.3C80,168.2,80,169,80,169z
			 M78.7,169.8c0.4-1.2,0.1-2.2-0.7-2.2c-1.1,0-1.3,0.8-2.5,3.2v-1.3c0-1-0.3-1.9-1.2-1.9c-1,0-2,1.6-2.7,3.2H72
			c0.5-0.7,1-1.1,1.3-1.1c0.4,0,0.7,0.7,0,2.2l-2,4.5c-0.4,0.8,0,1.3,0.8,1.3c0.5,0,0.7-0.1,0.9-0.7l1.9-5.2c0.5-0.7,1-1.3,1.7-1.9
			L78.7,169.8L78.7,169.8z M67.3,168.9c0.7,0,1.3,0.5,1,1.9l-3.2,0.7C65.7,170,66.6,168.9,67.3,168.9 M69,174.1h-0.6
			c-0.8,1-1.6,1.7-2.5,1.7c-0.9,0-1.3-0.5-1.3-1.7c0-0.4,0.1-1,0.1-1.4l5.2-1.7c1-2.4-0.2-3.4-1.6-3.4c-2.4,0-5.2,4-5.2,7.6
			c0,1.6,0.7,2.5,1.9,2.5C66.4,177.6,67.9,176.2,69,174.1 M56.5,176.1c-0.5,0-1.2-0.4-1.2-0.9c0-0.1,0.2-0.7,0.5-1.4l0.8-2.2
			c0.9-1,2.2-2.2,3-2.2c0.4,0,0.8,0.3,0.8,1C60.4,172.4,58.5,176.1,56.5,176.1 M62.3,169.6c0-1.5-0.5-2.1-1.6-2.1
			c-1.3,0-2.5,1.3-3.7,3.1l3.1-8.1l-0.1-0.2l-3.2,0.4v0.4l0.6,0.4c0.6,0.4,0.4,0.9-0.1,2.2l-3.3,8.7c-0.2,0.6-0.5,1.3-0.5,1.6
			c0,0.9,1.2,1.7,2.3,1.7C58.1,177.6,62.3,173.1,62.3,169.6 M52.2,168.6c0.2-0.7-0.2-1-0.6-1c-1.5,0-3.2,1.3-4,3.2h0.4
			c0.4-0.7,1.3-1.4,2.1-1.6l-2.8,7.4c-0.2,0.7,0.2,1,0.6,1c1.4,0,3.1-1.3,3.7-3.2h-0.4c-0.4,0.7-1.3,1.4-2.1,1.6L52.2,168.6z
			 M52.7,164.9c0.7,0,1.2-0.5,1.2-1.2s-0.5-1.2-1.2-1.2s-1.2,0.5-1.2,1.2S52,164.9,52.7,164.9 M45.2,163.7h-6.7l-0.1,0.6
			c2,0.4,2.2,0.6,1.3,3.1l-2.2,6.1c-0.9,2.5-1.3,2.8-3.6,3.1l-0.1,0.6H44l2.2-4h-0.7c-1.3,1.4-2.8,3.1-5,3.1c-1.7,0-1.9-0.3-1-2.9
			l2.2-6.1c0.9-2.5,1.3-2.8,3.6-3.1V163.7z"/>
	</g>
	<g>
		<path style="fill:#000091;" d="M71.7,63c0.4-0.4,0.7-0.7,1.1-1.1l0,0c0.7-0.7,1.3-1.5,2.1-2.2c0.2-0.2,0.4-0.4,0.7-0.5
			c0.1-0.1,0.1-0.2,0.1-0.2c-0.3,0.1-0.5,0.4-0.8,0.5c-0.1,0-0.1-0.1-0.1-0.1c0.2-0.1,0.4-0.4,0.7-0.5c0,0,0,0-0.1,0
			c-0.1,0-0.1-0.1-0.1-0.1c-0.8-0.1-1.5,0.4-2,1c-0.1,0.1-0.2-0.1-0.3-0.1c-1,0.3-1.6,1.1-2.6,1.5c0-0.1,0-0.1,0-0.1
			c-0.4,0.1-0.7,0.4-1.1,0.4c-0.6,0.1-1,0.1-1.6,0.1c-0.7,0.1-1.6,0.2-2.3,0.4h-0.1c-0.4,0.1-0.8,0.3-1.2,0.4c0,0,0,0-0.1,0
			c0,0.1-0.1,0.1-0.1,0.1c-0.1,0.1-0.2,0.3-0.4,0.4c-0.4,0.2-0.7,0.5-1,0.8h-0.1c-0.4,0.3-0.7,0.7-1,1c0,0-0.1,0-0.2,0l0,0v-0.1
			c0.1-0.1,0.1-0.1,0.1-0.3c0.1-0.1,0.1-0.2,0.2-0.3c0.1-0.1,0.1-0.2,0.3-0.4v-0.1h-0.1c0.3-0.3,0.7-0.6,1-0.8l0,0
			c-0.1,0-0.1,0-0.1-0.1c0.1-0.1,0.1-0.1,0.1-0.1v-0.1c0,0,0,0-0.1-0.1c-0.1,0.1-0.2,0.1-0.3,0.2c-0.1,0.1-0.3,0.4-0.5,0.4h-0.1
			h-0.1l0,0l0,0l0,0c0,0,0,0,0-0.1c0,0,0,0,0-0.1c0,0,0,0,0-0.1c0,0,0-0.1,0.1-0.1v-0.1c0-0.1,0.1-0.1,0.1-0.1c0,0,0-0.1,0.1-0.1
			c0-0.1,0.1-0.1,0.1-0.1s0-0.1-0.1-0.1c0.1-0.1,0.2-0.3,0.4-0.4l0,0c0.2-0.1,0.4-0.3,0.7-0.4l0.1-0.1c-0.4,0.1-0.7,0.3-1,0.5
			c0,0-0.1,0-0.1,0.1c0,0-0.1,0-0.1-0.1c0,0,0,0,0-0.1c0.1-0.1,0.2-0.2,0.4-0.3c0.1,0,0.1,0,0.1,0.1c2-1.6,4.8-1.2,7.2-2
			c0.2-0.1,0.4-0.2,0.6-0.4c0.3-0.1,0.6-0.4,1-0.6c0.5-0.4,0.9-0.8,1-1.5c0-0.1-0.1-0.1-0.1-0.1c-0.8,0.9-1.8,1.6-2.8,2.1
			c-1.3,0.7-2.8,0.6-4.2,0.7c0.1,0.1,0.3,0.1,0.4,0.1c0-0.2,0.1-0.2,0.2-0.4c0.1,0,0.1,0,0.2,0s0.1-0.1,0.1-0.1
			c0.1,0,0.3-0.1,0.2-0.1c-0.2-0.2-0.6,0.2-0.9,0c0.1-0.1,0.1-0.3,0.2-0.4c0.1,0,0.2,0,0.2,0c0-0.1,0.1-0.2,0.1-0.2
			c1-0.6,1.9-1,2.7-1.5c-0.2,0-0.3,0.2-0.5,0.1c0.1,0,0-0.2,0.1-0.2c0.7-0.2,1.3-0.6,1.9-0.8c-0.2,0-0.4,0.2-0.7,0
			c0.1-0.1,0.2-0.2,0.4-0.2c0-0.1,0-0.1,0-0.2c0-0.1,0.1-0.1,0.1-0.1c-0.1,0-0.1-0.1-0.1-0.1c0.1-0.1,0.2-0.1,0.4-0.2
			c-0.1,0-0.2,0-0.2-0.1c0.2-0.2,0.5-0.3,0.8-0.4c-0.1-0.1-0.2,0-0.2-0.1c0-0.1,0.1-0.1,0.1-0.1c-0.1,0-0.1,0-0.1,0
			c-0.1-0.1-0.1-0.2-0.1-0.2c0.4-0.4,0.4-1,0.6-1.5c-0.1,0-0.1,0-0.1-0.1c-0.6,0.7-1.6,1-2.6,1.2c-0.1,0-0.2,0-0.3,0
			c-0.3,0.1-0.7,0.1-1-0.1c-0.2-0.1-0.4-0.3-0.6-0.5c-0.5-0.3-1-0.6-1.6-0.7c-1.6-0.5-3.2-0.7-4.9-0.7c0.7-0.4,1.5-0.4,2.2-0.6
			c1-0.3,2.1-0.7,3.2-0.6c-0.2-0.1-0.4,0-0.6,0c-0.9-0.1-1.8,0.2-2.7,0.4c-0.6,0.1-1.2,0.4-1.9,0.5c-0.4,0.1-0.6,0.5-1,0.4
			c0,0,0-0.1,0-0.2c0.6-0.7,1.4-1.5,2.4-1.6c1.1-0.2,2.2,0,3.4,0.1c0.8,0.1,1.6,0.2,2.4,0.4c0.3,0,0.4,0.5,0.6,0.6
			c0.4,0.1,0.7,0,1.1,0.2c0-0.1-0.1-0.2,0-0.4c0.2-0.2,0.6,0.1,0.8-0.1c0.5-0.3-0.4-0.9-0.7-1.3c0-0.1,0.1-0.1,0.1-0.1
			c0.5,0.4,0.9,1,1.5,1.3c0.3,0.1,1,0.3,1-0.1c-0.3-0.7-1-1.3-1.5-1.9c0-0.1,0-0.2,0-0.2c-0.1,0-0.1-0.1-0.2-0.1c0-0.1,0-0.2,0-0.2
			c-0.2-0.1-0.2-0.4-0.3-0.6C70,47.5,70.1,47,70,46.7s-0.2-0.7-0.2-1c-0.2-1-0.4-2-0.6-3.1c-0.1-1.2,0.7-2.2,1.3-3.2
			c0.4-0.7,1-1.5,1.8-2c0.2-0.7,0.7-1.4,1.2-2c0.5-0.6,1.3-1,1.9-1.3c0.9-0.4,1.7-0.7,1.7-0.7H33.6v33.6h30.8
			c1.2-0.9,2.4-1.3,4.1-2.1C69.3,64.4,71.1,63.6,71.7,63z M62,58.4c-0.1,0-0.4,0.1-0.3-0.1c0.1-0.3,0.5-0.3,0.7-0.4
			c0.1-0.1,0.3-0.2,0.4-0.1c0.1,0.2,0.3,0.1,0.4,0.2C62.9,58.4,62.4,58.2,62,58.4z M52.3,57c0,0-0.1-0.1-0.1-0.1
			c0.8-1,1.5-2.1,2-3.2c0.8-0.4,1.5-1.1,2.2-1.8c1-1.1,2.2-2.2,3.6-2.8c0.5-0.2,1.1-0.1,1.6,0.1c-0.2,0.2-0.5,0.2-0.7,0.4
			c-0.1,0-0.1,0-0.2-0.1c0.1-0.1,0.1-0.1,0.1-0.2c-0.6,0.7-1.5,1-2,1.9c-0.4,0.6-0.6,1.5-1.5,1.6c-0.2,0.1,0.1-0.2-0.1-0.1
			C55.2,53.8,53.8,55.3,52.3,57z M57.5,52.8c-0.1,0.1-0.1,0.1-0.2,0.2c-0.1,0.1-0.1,0.2-0.2,0.2c-0.1,0-0.1,0-0.1-0.1
			c0.1-0.2,0.2-0.5,0.5-0.6C57.5,52.7,57.5,52.7,57.5,52.8z M60.5,62.3c0,0.1-0.1,0.1-0.1,0.1c0.1,0,0.1,0.1,0.1,0.1
			c-0.1,0.1-0.3,0.3-0.4,0.3h-0.1c-0.1,0.1-0.1,0.1-0.2,0.2c-0.1,0.1-0.4,0-0.3-0.1c0.1-0.1,0.3-0.3,0.4-0.4
			c0.1-0.1,0.1-0.1,0.3-0.2c0.1-0.1,0.1-0.1,0.1-0.1C60.2,62.2,60.5,62.2,60.5,62.3z M59.3,61.8C59.3,61.8,59.3,61.8,59.3,61.8
			c-0.2,0.1-0.5,0.4-0.7,0.5c-0.3,0.1-0.5,0.3-0.8,0.4l0,0c0,0-0.1-0.1-0.1,0c-0.2,0.1-0.4,0.3-0.7,0.5l-0.1,0.1l0,0l0,0l-0.1,0.1
			l0,0l0,0c-0.1,0.1-0.1,0.1-0.1,0.1l-0.1,0.1c-0.1,0-0.1,0-0.1-0.1l0,0c-0.1,0-0.1,0.1-0.1,0.1c0,0-0.1,0-0.1,0.1c0,0,0,0-0.1,0
			c0,0,0,0-0.1,0c-0.1,0.1-0.1,0.1-0.2,0.2c-0.1,0.1-0.2,0.2-0.4,0.4l0,0l0,0l0,0l0,0l0,0c0,0,0,0.1-0.1,0.1l0,0c0,0,0,0-0.1,0
			c0,0,0,0,0-0.1l0,0c0,0,0-0.1-0.1-0.1l0,0l0,0c0.1-0.1,0.1-0.1,0.2-0.2l0,0l0.1-0.1c0-0.1,0.1-0.1,0.1-0.1c0,0,0,0,0.1-0.1
			c0.1-0.1,0.1-0.1,0.2-0.3l0,0c0,0,0,0,0-0.1c0-0.1,0.1-0.1,0.1-0.1c0-0.1,0.1-0.1,0.1-0.1l0,0l0,0l0,0c0-0.1,0.1-0.1,0.1-0.1l0,0
			c0,0,0,0,0-0.1v-0.1l0,0l0,0v-0.1c0,0,0,0,0-0.1c0.1-0.1,0.1-0.2,0.2-0.4l0,0c-0.1,0.1-0.1,0.1-0.2,0.2c-0.1,0.1-0.2,0-0.1-0.1
			c0.1-0.1,0.1-0.1,0.1-0.1l0,0c0.1-0.1,0.2-0.2,0.3-0.3c0.1-0.1,0.1-0.1,0.2-0.1l0,0c0.1-0.1,0.1-0.1,0.1-0.1l0,0
			c0.6-0.6,1.6-0.5,2.5-0.9c0.3-0.1,0.7,0.1,1,0c0.2,0,0.4,0,0.6,0.1C60.3,61.1,59.8,61.5,59.3,61.8z M60.6,57.3
			c-0.1-0.1,0.2,0,0.2-0.1c-0.2,0-0.3,0-0.5,0c-0.1,0-0.1-0.1-0.1-0.1c-0.3,0.1-0.7,0.2-1,0.2c-0.4,0.1-0.8,0.4-1.3,0.6
			c-0.7,0.2-1.3,0.8-2,1c-0.1,0-0.1-0.1-0.1-0.1c0.1-0.2,0.3-0.2,0.4-0.4c0-0.1,0-0.1-0.1-0.1c0.5-0.7,1.2-1,1.9-1.6
			c0-0.1,0-0.1,0-0.2c0.2-0.2,0.5-0.4,0.6-0.7c0.1-0.2,0.3-0.4,0.6-0.6C59.1,55,59,55,59,54.8c-0.2,0-0.5,0.1-0.7-0.1
			c0.1-0.1,0.2-0.1,0.4-0.2c-0.1,0-0.1-0.1-0.1-0.1c-0.1-0.1,0.1-0.3,0.3-0.3c0.2-0.1,0.6-0.1,0.7-0.2c-0.4-0.1-1,0.1-1.4-0.1
			c0.3-0.8,0.8-1.5,1.6-1.9c0.1,0,0.2,0,0.2,0.1c0,0.3-0.2,0.6-0.5,0.6c0.5,0.1,1,0.1,1.5,0.4c-0.1,0.1-0.2,0.1-0.2,0.1
			c0.3,0.2,0.7,0.1,1,0.3c-0.2,0.2-0.4,0-0.6,0c1.9,0.6,4,1,5.7,2.3c-1.4,0.7-2.8,1-4.4,1.3c-0.2,0-0.3,0-0.5-0.1
			c0,0.1,0,0.2-0.1,0.2c-0.2,0-0.4,0-0.6,0.1C61.2,57.5,60.8,57.6,60.6,57.3z"/>
		<g>
			<path style="fill:#E1000F;" d="M125.9,33.4H89.8c0,0,0.1,0,0.4,0.1c0.3,0.1,0.7,0.4,0.9,0.4c0.4,0.2,0.9,0.5,1.2,1
				c0.1,0.2,0.3,0.6,0.2,0.8c-0.1,0.3-0.2,0.8-0.5,1c-0.4,0.2-0.9,0.2-1.3,0.1c-0.2,0-0.5-0.1-0.7-0.1c1,0.4,1.9,0.8,2.5,1.7
				c0.1,0.1,0.3,0.2,0.6,0.2c0.1,0,0.1,0.1,0.1,0.2c-0.1,0.1-0.2,0.2-0.2,0.4c0.1,0,0.1,0,0.2,0c0.3-0.1,0.2-0.7,0.7-0.6
				c0.3,0.2,0.4,0.6,0.2,1c-0.2,0.2-0.5,0.4-0.7,0.6c-0.1,0.1-0.1,0.3,0,0.4c0.2,0.2,0.2,0.5,0.3,0.7c0.2,0.4,0.2,1,0.4,1.4
				c0.2,1,0.5,1.9,0.4,2.8c0,0.5-0.2,1-0.1,1.5c0.1,0.5,0.4,0.9,0.7,1.3c0.2,0.4,0.5,0.6,0.7,1c0.4,0.6,1,1.3,0.7,2
				c-0.2,0.4-0.9,0.4-1.3,0.6c-0.4,0.3-0.1,0.8,0.1,1.1c0.3,0.6-0.4,1-0.8,1.1c0.1,0.2,0.4,0.1,0.4,0.2c0.1,0.3,0.4,0.5,0.2,0.8
				c-0.2,0.4-1,0.6-0.6,1.1c0.2,0.4,0.1,1-0.1,1.4c-0.2,0.6-0.7,0.8-1.1,1c-0.4,0.1-0.8,0.1-1.2,0.1c-0.1-0.1-0.2-0.1-0.4-0.1
				c-1-0.1-2.2-0.4-3.2-0.4c-0.3,0.1-0.6,0.1-0.9,0.2c-0.3,0.2-0.5,0.4-0.7,0.7l0,0c-0.1,0.1-0.1,0.1-0.1,0.1l-0.1,0.1
				c0,0,0,0.1-0.1,0.1c-0.1,0.2-0.4,0.4-0.5,0.7c0,0,0,0,0,0.1c0,0,0,0.1-0.1,0.1c-0.2,0.4-0.4,0.7-0.4,1.2c-0.4,1.4-0.2,2.7,0.1,3
				c0.1,0.1,2.1,0.7,3.5,1.3c0.7,0.3,1.1,0.5,1.5,0.7H126L125.9,33.4L125.9,33.4z"/>
		</g>
		<path style="fill:#9D9D9C;" d="M91.9,45.5c0.2,0.1,0.6,0.1,0.6,0.2c-0.1,0.5-0.9,0.6-1.3,1.1H91c-0.2,0.1-0.1,0.4-0.3,0.4
			c-0.2-0.1-0.4,0-0.6,0.1c0.2,0.2,0.6,0.4,1,0.4c0.1,0,0.2,0.1,0.2,0.2c0,0,0.1,0,0.1-0.1c0.1,0,0.1,0,0.1,0.1v0.2
			c-0.2,0.2-0.5,0.1-0.7,0.2c0.5,0.1,1,0.1,1.5,0c0.4-0.1,0-0.7,0.2-1c-0.1,0,0-0.2-0.1-0.2c0.1-0.1,0.2-0.3,0.4-0.4
			c0.1,0,0.3-0.1,0.4-0.2c0-0.1-0.2-0.2-0.2-0.3c0.4-0.2,0.7-0.6,0.6-1c-0.1-0.2-0.6-0.2-0.9-0.3c-0.3-0.1-0.7,0-1,0.1
			c-0.3,0-0.6,0.2-1,0.2c-0.4,0.1-0.8,0.4-1.2,0.6c0.4-0.2,0.9-0.2,1.4-0.4C91.2,45.5,91.5,45.5,91.9,45.5z"/>
	</g>
</g>
<g>
	<path style="fill:#FFFFFF;" d="M452.8,0c-39.4,0-71.3,32-71.3,71.3c0,39.4,31.9,71.3,71.3,71.3s71.3-31.9,71.3-71.3
		C524.1,32,492.2,0,452.8,0 M452.8,49.7c-7.1,0-12.7,5.2-12.7,11.5c0,2,0.6,3.8,1.5,5.6c-6.9-1.9-10.9-5.2-11.2-10.3
		c-0.4-9.6,8.6-19.3,22.4-19.3c13.7,0,22.9,9.8,22.3,19.3c-0.3,5-4.4,8.4-11.2,10.3c0.9-1.6,1.5-3.5,1.5-5.6
		C465.6,54.9,459.8,49.7,452.8,49.7z M484.4,53.6c0.1-0.9,0.2-1.9,0.2-2.7c0-15.1-14.2-27.4-31.8-27.4S421,35.8,421,50.9
		c0,0.9,0.1,1.9,0.2,2.7c-3.1-4.2-4.8-9.1-4.8-14.4c0-16.2,16.3-29.1,36.5-29.1s36.5,13,36.5,29.1C489.3,44.4,487.6,49.3,484.4,53.6
		z"/>
	<g>
		<path style="fill:#FFFFFF;" d="M545,71.4h20.4v50.2h0.4c4.4-6.7,10.8-10.4,18.8-10.4c9.8,0,14.8,3.8,18.3,9.2
			c2.6,4.2,3.2,10,3.2,24.6v38.6c0,11.2-0.9,17.4-3.3,21.8c-3.6,6.7-9.7,9.6-17.9,9.6c-10.3,0-14.2-4.5-19.4-10.4v9.2h-20.4
			L545,71.4 M585.6,143.6c0-6.4-2.2-12-10-12c-5.8,0-10.3,4.6-10.3,11v39.5c0,7.4,4,12.6,10.3,12.6c7.1,0,10-5.6,10-13.7V143.6z"/>
		<path style="fill:#FFFFFF;" d="M622.9,112.4h20.4v10.8c8.5-7.4,15.2-12,27-12v21.6c-2-0.8-4-1.2-6.2-1.2c-8.6,0-20.8,5.5-20.8,22
			v60.3h-20.4V112.4L622.9,112.4z"/>
		<path style="fill:#FFFFFF;" d="M698.9,225.7c0.3,4.8,3.8,10,10.8,10c6.7,0,9.4-4.5,9.4-11v-20.1h-0.4c-4.4,6.7-10.8,10.4-19,10.4
			s-14.2-2.9-17.9-9.6c-2.4-4.4-3.4-10.6-3.4-21.8V145c0-14.6,0.6-20.4,3.2-24.6c3.4-5.5,8.5-9.2,18.3-9.2
			c10.1,0,13.9,4.5,19.2,10.4v-9.2h20.4v113.9c0,13.7-9,29.8-30.6,29.8c-12.4,0-27.9-7.3-30.4-30.4L698.9,225.7 M698.9,182.7
			c0,6.4,2.2,12,10,12c5.8,0,10.3-4.5,10.3-10.9v-39.5c0-7.4-4-12.6-10.3-12.6c-7.1,0-10,5.6-10,13.7V182.7z"/>
		<path style="fill:#FFFFFF;" d="M756.4,112.4h20.4v9.8h0.4c4.2-6.4,9.8-11,19.2-11c8.8,0,14.6,5.3,18.2,10.3
			c5-5.6,10.4-10.3,21.3-10.3c10.3,0,22.1,6.7,22.1,24.8v77.9h-20.4v-70.3c0-7.4-3.6-12-10-12c-7.6,0-10.3,4.9-10.3,14v68.3h-20.4
			v-70.3c0-7.4-3.6-12-10-12c-7.6,0-10.3,4.9-10.3,14v68.1h-20.3L756.4,112.4L756.4,112.4z"/>
	</g>
	<g>
		<path style="fill:#FFFFFF;" d="M606.8,63.8V46.6c0-5,3.8-7.7,7.6-7.7c3.7,0,7.6,2.6,7.6,7.7c0,0,0,0.9,0,1.3c-0.6,0-3.4,0-4,0
			c0-0.4,0-1.3,0-1.3c0-2.2-1.4-3.6-3.5-3.6s-3.5,1.5-3.5,3.6V64c0,2.2,1.4,3.6,3.5,3.6s3.5-1.5,3.5-3.6v-6.6c0,0-3.1,0-3.7,0
			c0-0.5,0-2.9,0-3.4c0.6,0,7.2,0,7.8,0c0,0.6,0,10,0,10c0,5-3.8,7.7-7.6,7.7C610.6,71.5,606.8,69,606.8,63.8z"/>
		<path style="fill:#FFFFFF;" d="M638.7,39.1c-0.9,0.9-5.3,5.6-5.5,5.8c-0.3,0-1.5,0-2.2,0c0.6-0.9,3.5-5.6,3.7-5.8
			C635.1,39.1,637.6,39.1,638.7,39.1z"/>
		<path style="fill:#FFFFFF;" d="M627.5,68.4c-0.6-1-0.8-2.6-0.8-4.5v-7.7c0-2,0.3-3.5,0.8-4.5c1.1-2,3.2-3.2,5.8-3.2
			c3.9,0,6.8,2.8,6.8,6.9c0,0,0,5.5,0,6.2c-0.6,0-9.3,0-9.3,0v3.5c0,1.6,1,2.6,2.6,2.6c1,0,2.2-0.4,2.6-2.4c0.4,0,3.3,0,4,0
			c-0.1,1.7-0.7,3.2-1.7,4.4c-1.3,1.3-2.9,2-4.9,2C630.8,71.5,628.7,70.4,627.5,68.4z M630.8,55.3v3h5.4v-3c0-1.9-0.9-3-2.6-3
			C631.7,52.3,630.8,53.4,630.8,55.3z"/>
		<path style="fill:#FFFFFF;" d="M645.3,68.4c-0.6-1-0.8-2.6-0.8-4.5v-7.7c0-2,0.3-3.5,0.8-4.5c1.1-2,3.2-3.2,5.8-3.2
			s4.7,1.1,5.8,3.2c0.6,1,0.8,2.6,0.8,4.5V64c0,2-0.3,3.5-0.8,4.5c-1.1,2-3.2,3.2-5.8,3.2C648.6,71.5,646.4,70.4,645.3,68.4z
			 M648.5,55.3v9.1c0,1.9,0.9,3,2.6,3c1.6,0,2.6-1.1,2.6-3v-9.1c0-1.9-0.9-3-2.6-3S648.5,53.4,648.5,55.3z"/>
		<path style="fill:#FFFFFF;" d="M671.2,64.9c0-1.5-0.8-2.5-2.6-3.2l-2.2-0.9c-2.9-1.1-4.5-3.2-4.5-6.2c0-3.6,2.9-6.5,6.6-6.5
			c3.4,0,6,2.6,6.2,6.2c-0.6,0-3.2,0-3.7,0c-0.2-1.4-1.2-2.4-2.6-2.4c-1.7,0-2.6,1.4-2.6,2.7c0,0.9,0.3,2,2.2,2.7l2.7,1.1
			c2.9,1.1,4.4,3.2,4.4,6.3c0,3.8-2.9,6.8-6.8,6.8c-3.8,0-6.3-2.5-6.6-6.3c0.6,0,3.2,0,3.7,0c0.4,2.1,1.7,2.6,2.7,2.6
			C669.7,67.9,671.2,66.8,671.2,64.9z"/>
		<path style="fill:#FFFFFF;" d="M680,68.4c-0.6-1-0.8-2.6-0.8-4.5v-7.7c0-2,0.3-3.5,0.8-4.5c1.1-2,3.2-3.2,5.8-3.2
			c3.8,0,6.5,2.7,6.7,6.8c-0.6,0-3.5,0-4,0c-0.2-2.3-1.6-2.7-2.6-2.7c-1.7,0-2.6,1.1-2.6,3v9.6c0,1.6,1,2.6,2.6,2.6
			c1,0,2.2-0.4,2.6-2.4c0.4,0,3.3,0,4,0c-0.1,1.7-0.6,3.2-1.7,4.4c-1.3,1.3-2.9,2-4.9,2C683.3,71.5,681.2,70.4,680,68.4z"/>
		<path style="fill:#FFFFFF;" d="M700.3,39.2c0,0.6,0,3.4,0,4c-0.6,0-3.4,0-4,0c0-0.5,0-3.4,0-4C697,39.2,699.8,39.2,700.3,39.2z"/>
		<path style="fill:#FFFFFF;" d="M700.3,48.6c0,0.7,0,22,0,22.7c-0.6,0-3.4,0-4,0c0-0.6,0-22,0-22.7C697,48.6,699.8,48.6,700.3,48.6
			z"/>
		<path style="fill:#FFFFFF;" d="M705.9,68.4c-0.6-1-0.8-2.6-0.8-4.5v-7.7c0-2,0.3-3.5,0.8-4.5c1.1-2,3.2-3.2,5.8-3.2
			c3.9,0,6.8,2.8,6.8,6.9c0,0,0,5.5,0,6.2c-0.6,0-9.3,0-9.3,0v3.5c0,1.6,1,2.6,2.6,2.6c1,0,2.2-0.4,2.6-2.4c0.4,0,3.3,0,4,0
			c-0.1,1.7-0.6,3.2-1.7,4.4c-1.3,1.3-2.9,2-4.9,2C709.1,71.5,707,70.4,705.9,68.4z M709,55.3v3h5.3v-3c0-1.9-0.9-3-2.6-3
			C710,52.3,709,53.4,709,55.3z"/>
		<path style="fill:#FFFFFF;" d="M759,68.4c-0.6-1-0.8-2.6-0.8-4.5v-7.7c0-2,0.3-3.5,0.8-4.5c1.1-2,3.2-3.2,5.8-3.2
			c3.9,0,6.8,2.8,6.8,6.9c0,0,0,5.5,0,6.2c-0.6,0-9.3,0-9.3,0v3.5c0,1.6,0.9,2.6,2.6,2.6c1,0,2.2-0.4,2.6-2.4c0.4,0,3.3,0,4,0
			c-0.1,1.7-0.7,3.2-1.7,4.4c-1.3,1.3-2.9,2-4.9,2C762.4,71.5,760.1,70.4,759,68.4z M762.2,55.3v3h5.3v-3c0-1.9-0.9-3-2.6-3
			C763.3,52.3,762.2,53.4,762.2,55.3z"/>
		<path style="fill:#FFFFFF;" d="M727.7,50.7c1.1-1.6,2.4-2.4,4.1-2.4c2.1,0,4.4,1.4,4.4,5.5c0,0,0,16.9,0,17.6c-0.6,0-3.4,0-4,0
			c0-0.6,0-15.9,0-15.9c0-1.9-1-3.1-2.6-3.1c-2.4,0-2.6,2-2.6,3.6c0,0,0,14.7,0,15.5c-0.6,0-3.4,0-4,0c0-0.6,0-22,0-22.7
			c0.6,0,3.4,0,4,0c0,0.5,0,3.1,0,3.1L727.7,50.7z"/>
		<path style="fill:#FFFFFF;" d="M742.3,68.4c-0.6-1-0.8-2.6-0.8-4.5v-7.7c0-2,0.3-3.5,0.8-4.5c1.1-2,3.2-3.2,5.8-3.2
			c3.8,0,6.5,2.7,6.7,6.8c-0.6,0-3.4,0-4,0c-0.1-1.7-1-2.7-2.6-2.7c-1.7,0-2.6,1.1-2.6,3v9.6c0,1.6,1,2.6,2.6,2.6
			c1.5,0,2.3-0.9,2.6-2.4c0.4,0,3.3,0,4,0c-0.1,1.7-0.7,3.2-1.7,4.4c-1.2,1.3-2.9,2-4.9,2C745.4,71.5,743.4,70.4,742.3,68.4z"/>
		<path style="fill:#FFFFFF;" d="M785,64.9c0-1.5-0.8-2.5-2.6-3.2l-2.2-0.9c-2.9-1.1-4.5-3.2-4.5-6.2c0-3.6,2.9-6.5,6.6-6.5
			c3.4,0,6,2.6,6.2,6.2c-0.6,0-3.2,0-3.7,0c-0.2-1.4-1.2-2.4-2.6-2.4c-1.7,0-2.6,1.4-2.6,2.7c0,0.9,0.3,2,2.2,2.7l2.7,1.1
			c2.9,1.1,4.4,3.2,4.4,6.3c0,3.8-2.9,6.8-6.7,6.8s-6.3-2.5-6.7-6.3c0.6,0,3.2,0,3.8,0c0.4,2.1,1.7,2.6,2.7,2.6
			C783.5,67.9,785,66.8,785,64.9z"/>
		<path style="fill:#FFFFFF;" d="M852.5,48.6c0,0.7,0,22,0,22.7c-0.6,0-3.4,0-4,0c0-0.5,0-3.1,0-3.1l-0.7,0.9
			c-1.1,1.6-2.3,2.4-4.1,2.4c-2.2,0-4.4-1.4-4.4-5.4c0,0,0-16.9,0-17.6c0.5,0,3.4,0,4,0c0,0.7,0,15.9,0,15.9c0,1.9,1,3.1,2.6,3.1
			c2.4,0,2.7-2,2.7-3.6c0,0,0-14.7,0-15.5C849.2,48.6,852,48.6,852.5,48.6z"/>
		<path style="fill:#FFFFFF;" d="M828,71.5c2.6,0,4.7-1.1,5.8-3.2c0.6-1,0.9-2.6,0.9-4.5v-7.6c0-2-0.3-3.5-0.9-4.5
			c-1.1-2-3.2-3.2-5.8-3.2s-4.7,1.1-5.8,3.2c-0.6,1-0.9,2.6-0.9,4.5V64c0,2,0.3,3.5,0.9,4.5C823.2,70.4,825.3,71.5,828,71.5z
			 M828,52.3c1.7,0,2.6,1.1,2.6,3v9.1c0,1.9-0.9,3-2.6,3s-2.6-1.1-2.6-3v-9.1C825.3,53.4,826.3,52.3,828,52.3z"/>
		<path style="fill:#FFFFFF;" d="M807.9,50.6c1.1-1.3,2-2.2,4.2-2.2c1.8,0,3,0.6,3.8,2c0.5,0.9,0.8,2.4,0.8,4.9v8.9
			c0,3.4-0.2,4.6-0.7,5.6c-0.9,1.4-2,1.9-3.8,1.9c-1.7,0-3.1-0.8-4-2.2l-0.6-0.9l-0.1,1.1c0,0,0,10.6,0,11.2c-0.6,0-3.4,0-4,0
			c0-0.7,0-31.4,0-32.1c0.6,0,3.4,0,4,0c0,0.4,0,2.6,0,2.6L807.9,50.6z M807.3,55.5v9.1c0,1.7,1.1,2.9,2.7,2.9
			c1.7,0,2.6-1.1,2.6-3.1v-8.5c0-2.2-0.9-3.5-2.6-3.5C808.4,52.3,807.3,53.6,807.3,55.5z"/>
		<path style="fill:#FFFFFF;" d="M862.1,50.9c1.9-1.7,3.3-2.6,5.6-2.6c0,0.6,0,3.5,0,4.2c-0.4-0.1-1.1-0.3-1.1-0.3
			c-2.5,0-5,1.7-5,5.5c0,0,0,12.9,0,13.5c-0.6,0-3.4,0-4,0c0-0.6,0-22,0-22.7c0.6,0,3.4,0,4,0c0,0.5,0,2.9,0,2.9L862.1,50.9z"/>
		<path style="fill:#FFFFFF;" d="M893.5,48.6c0,0.7,0,22,0,22.7c-0.6,0-3.4,0-4,0c0-0.5,0-3.1,0-3.1l-0.8,0.9
			c-1.1,1.6-2.4,2.4-4.1,2.4c-2.2,0-4.5-1.4-4.5-5.4c0,0,0-16.9,0-17.6c0.6,0,3.4,0,4,0c0,0.7,0,15.9,0,15.9c0,1.9,1,3.1,2.6,3.1
			c2.4,0,2.7-2,2.7-3.6c0,0,0-14.7,0-15.5C890.1,48.6,892.9,48.6,893.5,48.6z"/>
		<path style="fill:#FFFFFF;" d="M903.2,50.7c1-1.6,2.4-2.4,4.1-2.4c2.1,0,4.4,1.4,4.4,5.5c0,0,0,16.9,0,17.6c-0.6,0-3.4,0-4,0
			c0-0.6,0-15.9,0-15.9c0-1.9-1-3.1-2.6-3.1c-2.4,0-2.6,2-2.6,3.6c0,0,0,14.7,0,15.5c-0.6,0-3.4,0-4,0c0-0.6,0-22,0-22.7
			c0.6,0,3.4,0,4,0c0,0.5,0,3.1,0,3.1L903.2,50.7z"/>
		<path style="fill:#FFFFFF;" d="M955.6,39.2c0,0.5,0,3.2,0,3.7c-0.6,0-5.5,0-5.5,0s0,27.7,0,28.5c-0.6,0-3.4,0-4,0
			c0-0.7,0-28.5,0-28.5s-4.8,0-5.5,0c0-0.5,0-3.2,0-3.7C941.4,39.2,954.9,39.2,955.6,39.2z"/>
		<path style="fill:#FFFFFF;" d="M977.6,50.9c1.9-1.7,3.3-2.6,5.6-2.6c0,0.6,0,3.5,0,4.2c-0.4-0.1-1.1-0.3-1.1-0.3
			c-2.5,0-5.2,1.7-5.2,5.5c0,0,0,12.9,0,13.5c-0.6,0-3.4,0-4,0c0-0.6,0-22,0-22.7c0.6,0,3.4,0,4,0c0,0.5,0,2.9,0,2.9L977.6,50.9z"/>
		<path style="fill:#FFFFFF;" d="M990.4,50.9c1.9-1.7,3.3-2.6,5.6-2.6c0,0.6,0,3.5,0,4.2c-0.4-0.1-1.1-0.3-1.1-0.3
			c-2.4,0-5,1.7-5,5.5c0,0,0,12.9,0,13.5c-0.6,0-3.4,0-4,0c0-0.6,0-22,0-22.7c0.5,0,3.4,0,4,0c0,0.5,0,2.9,0,2.9L990.4,50.9z"/>
		<path style="fill:#FFFFFF;" d="M1057.9,48.6c0,0.7,0,22,0,22.7c-0.6,0-3.4,0-4,0c0-0.5,0-3.1,0-3.1l-0.7,0.9
			c-1.1,1.6-2.4,2.4-4.2,2.4c-2.1,0-4.4-1.4-4.4-5.4c0,0,0-16.9,0-17.6c0.6,0,3.4,0,4,0c0,0.7,0,15.9,0,15.9c0,1.9,1,3.1,2.6,3.1
			c2.4,0,2.6-2,2.6-3.6c0,0,0-14.7,0-15.5C1054.5,48.6,1057.4,48.6,1057.9,48.6z"/>
		<path style="fill:#FFFFFF;" d="M1039.5,39.2c0,0.7,0,31.4,0,32.1c-0.6,0-3.4,0-4,0c0-0.4,0-2.6,0-2.6l-0.6,0.7
			c-1.1,1.3-2,2.2-4.2,2.2c-1.8,0-3-0.6-3.8-2c-0.5-0.9-0.8-2.4-0.8-4.9v-8.8c0-3.3,0.2-4.6,0.7-5.6c0.9-1.4,2-1.9,3.8-1.9
			c1.7,0,3.1,0.8,4,2.2l0.6,0.9l0.1-1.1c0,0,0-10.6,0-11.2C1036,39.2,1039,39.2,1039.5,39.2z M1030.1,55.4v8.5
			c0,2.2,0.9,3.5,2.6,3.5c1.6,0,2.6-1.3,2.6-3.2v-9.1c0-1.6-1.1-2.9-2.6-2.9C1031.6,52.3,1030.1,52.8,1030.1,55.4z"/>
		<path style="fill:#FFFFFF;" d="M1067.4,50.9c1.9-1.7,3.3-2.6,5.6-2.6c0,0.6,0,3.5,0,4.2c-0.4-0.1-1.1-0.3-1.1-0.3
			c-2.5,0-5,1.7-5,5.5c0,0,0,12.9,0,13.5c-0.6,0-3.4,0-4,0c0-0.6,0-22,0-22.7c0.6,0,3.4,0,4,0c0,0.5,0,2.9,0,2.9L1067.4,50.9z"/>
		<path style="fill:#FFFFFF;" d="M1076.8,50.2c1.2-1.2,2.9-1.9,4.9-1.9c3.2,0,6.8,1.9,6.8,7.1c0,0,0,15.2,0,16c-0.6,0-3.4,0-4,0
			c0-0.5-0.1-3.1-0.1-3.1l-0.6,0.8c-1.3,1.7-2.2,2.6-4.3,2.6c-2.1,0-4.7-1-4.7-5.9s1.1-7.6,7.1-7.6l1.1,0.1l1.5,0.1v-0.3v-2.5
			c0-2-0.9-3.1-2.6-3.1c-1.4,0-2.6,0.9-2.9,2.4c-0.4,0-3.2,0-3.8,0C1075.1,52.8,1075.7,51.3,1076.8,50.2z M1078.6,64.7
			c0,2,1.1,3.3,2.7,3.3c1.8,0,2.9-1.3,2.9-3.3v-3.4l-1.6-0.2C1080.2,61.1,1078.6,62.4,1078.6,64.7z"/>
		<path style="fill:#FFFFFF;" d="M1097,39.2c0,0.6,0,12.4,0,12.4l0.8-0.9c0.9-1.5,2.4-2.2,4-2.2c1.9,0,3.1,0.6,3.8,2
			c0.5,0.9,0.7,2,0.7,5.6v8.8c0,2.5-0.3,3.8-0.8,4.9c-0.8,1.4-2,2-3.8,2c-2.1,0-3-0.9-4.2-2.2l-0.6-0.7l-0.1,0.9c0,0,0,1.3,0,1.7
			c-0.6,0-3.4,0-4,0c0-0.7,0-31.4,0-32.1C1093.5,39.2,1096.4,39.2,1097,39.2z M1097,55.2v9.1c0,1.9,1.1,3.2,2.7,3.2
			c1.7,0,2.6-1.3,2.6-3.5v-8.6c0-2.6-1.5-3.1-2.6-3.1C1098.1,52.3,1097,53.5,1097,55.2z"/>
		<path style="fill:#FFFFFF;" d="M1114.5,39.5c0,0.7,0,26,0,26c0,1.8,0.6,2.5,2.3,2.7c0,0.4,0,3.2,0,3.8c-4-0.1-6.3-1.1-6.3-6.2
			c0,0,0-25.6,0-26.2C1111.2,39.5,1114,39.5,1114.5,39.5z"/>
		<path style="fill:#FFFFFF;" d="M1120.7,68.4c-0.6-1-0.8-2.6-0.8-4.5v-7.7c0-2,0.3-3.5,0.8-4.5c1.1-2,3.2-3.2,5.8-3.2
			c3.9,0,6.8,2.8,6.8,6.9c0,0,0,5.5,0,6.2c-0.6,0-9.4,0-9.4,0v3.5c0,1.6,1,2.6,2.6,2.6c1.5,0,2.3-0.9,2.6-2.4c0.4,0,3.3,0,4,0
			c-0.1,1.7-0.6,3.2-1.7,4.4c-1.3,1.3-2.9,2-4.9,2C1123.8,71.5,1121.7,70.4,1120.7,68.4z M1123.8,55.3v3h5.4v-3c0-1.9-0.9-3-2.6-3
			C1124.8,52.3,1123.8,53.4,1123.8,55.3z"/>
		<path style="fill:#FFFFFF;" d="M999.5,68.4c-0.6-1-0.8-2.6-0.8-4.5v-7.7c0-2,0.3-3.5,0.8-4.5c1.1-2,3.2-3.2,5.9-3.2
			c3.9,0,6.7,2.8,6.7,6.9c0,0,0,5.5,0,6.2c-0.6,0-9.3,0-9.3,0v3.5c0,1.6,1,2.6,2.6,2.6c1.5,0,2.3-0.9,2.6-2.4c0.4,0,3.3,0,4,0
			c-0.1,1.7-0.7,3.2-1.7,4.4c-1.3,1.3-2.9,2-4.9,2C1002.8,71.5,1000.6,70.4,999.5,68.4z M1002.7,55.3v3h5.3v-3c0-1.9-0.9-3-2.6-3
			C1003.7,52.3,1002.7,53.4,1002.7,55.3z"/>
		<path style="fill:#FFFFFF;" d="M955.9,68.4c-0.6-1-0.8-2.6-0.8-4.5v-7.7c0-2,0.3-3.5,0.8-4.5c1.1-2,3.2-3.2,5.8-3.2
			c3.9,0,6.8,2.8,6.8,6.9c0,0,0,5.5,0,6.2c-0.6,0-9.4,0-9.4,0v3.5c0,1.6,1,2.6,2.6,2.6c1.5,0,2.3-0.9,2.6-2.4c0.4,0,3.3,0,4,0
			c-0.1,1.7-0.6,3.2-1.7,4.4c-1.2,1.3-2.9,2-4.9,2C959.1,71.5,957.1,70.4,955.9,68.4z M959.1,55.3v3h5.4v-3c0-1.9-0.9-3-2.6-3
			C960.1,52.3,959.1,53.4,959.1,55.3z"/>
		<path style="fill:#FFFFFF;" d="M917.4,68.4c-0.6-1-0.8-2.6-0.8-4.5v-7.7c0-2,0.3-3.5,0.8-4.5c1.1-2,3.2-3.2,5.8-3.2
			c3.9,0,6.8,2.8,6.8,6.9c0,0,0,5.5,0,6.2c-0.6,0-9.4,0-9.4,0v3.5c0,1.6,1,2.6,2.6,2.6c1.5,0,2.3-0.9,2.6-2.4c0.4,0,3.3,0,4,0
			c-0.1,1.7-0.7,3.2-1.7,4.4c-1.3,1.3-2.9,2-4.9,2C920.6,71.5,918.5,70.4,917.4,68.4z M920.5,55.3v3h5.4v-3c0-1.9-0.9-3-2.6-3
			S920.5,53.4,920.5,55.3z"/>
	</g>
</g>
</svg>
